<svg width="48" height="36" viewBox="0 0 48 36" fill="none" xmlns="http://www.w3.org/2000/svg">
<path d="M5.14286 0.285645C3.56 0.285645 2.28571 1.55993 2.28571 3.14279V27.1428H45.7143V3.14279C45.7143 1.55993 44.44 0.285645 42.8571 0.285645H5.14286ZM27.4286 3.71422C28.9087 3.71422 30.1854 4.67416 30.6607 5.99993H34.8571C35.4883 5.99993 36 6.51159 36 7.14279C36 7.77399 35.4883 8.28564 34.8571 8.28564H30.6607C30.1854 9.61142 28.9087 10.5714 27.4286 10.5714C25.9485 10.5714 24.6717 9.61142 24.1964 8.28564H13.1429C12.5117 8.28564 12 7.77399 12 7.14279C12 6.51159 12.5117 5.99993 13.1429 5.99993H24.1964C24.6717 4.67416 25.9485 3.71422 27.4286 3.71422ZM27.4286 5.99993C26.7839 5.99993 26.2857 6.49804 26.2857 7.14279C26.2857 7.78753 26.7839 8.28564 27.4286 8.28564C28.0733 8.28564 28.5714 7.78753 28.5714 7.14279C28.5714 6.49804 28.0733 5.99993 27.4286 5.99993ZM18.2857 10.5714C19.7659 10.5714 21.0425 11.5313 21.5179 12.8571H34.8571C35.4883 12.8571 36 13.3687 36 13.9999C36 14.6311 35.4883 15.1428 34.8571 15.1428H21.5179C21.0425 16.4686 19.7659 17.4285 18.2857 17.4285C16.8056 17.4285 15.5288 16.4686 15.0536 15.1428H13.1429C12.5117 15.1428 12 14.6311 12 13.9999C12 13.3687 12.5117 12.8571 13.1429 12.8571H15.0536C15.5288 11.5313 16.8056 10.5714 18.2857 10.5714ZM18.2857 12.8571C17.641 12.8571 17.1429 13.3552 17.1429 13.9999C17.1429 14.6447 17.641 15.1428 18.2857 15.1428C18.9305 15.1428 19.4286 14.6447 19.4286 13.9999C19.4286 13.3552 18.9305 12.8571 18.2857 12.8571ZM29.7143 17.4285C31.1945 17.4285 32.4711 18.3884 32.9464 19.7142H34.8571C35.4883 19.7142 36 20.2259 36 20.8571C36 21.4883 35.4883 21.9999 34.8571 21.9999H32.9464C32.4711 23.3257 31.1945 24.2856 29.7143 24.2856C28.2342 24.2856 26.9574 23.3257 26.4821 21.9999H13.1429C12.5117 21.9999 12 21.4883 12 20.8571C12 20.2259 12.5117 19.7142 13.1429 19.7142H26.4821C26.9574 18.3884 28.2342 17.4285 29.7143 17.4285ZM29.7143 19.7142C29.0696 19.7142 28.5714 20.2123 28.5714 20.8571C28.5714 21.5018 29.0696 21.9999 29.7143 21.9999C30.359 21.9999 30.8571 21.5018 30.8571 20.8571C30.8571 20.2123 30.359 19.7142 29.7143 19.7142ZM0 29.4285V32.2856C0 34.1851 1.52914 35.7142 3.42857 35.7142H44.5714C46.4709 35.7142 48 34.1851 48 32.2856V29.4285H28.5714V31.7142H19.4286V29.4285H0Z" fill="#E50000"/>
</svg>
