<svg width="33" height="32" viewBox="0 0 33 32" fill="none" xmlns="http://www.w3.org/2000/svg">
<path fill-rule="evenodd" clip-rule="evenodd" d="M17.609 5.49493C17.0883 4.97424 16.2441 4.97424 15.7234 5.49494L11.8852 9.33317H21.4473L17.609 5.49493ZM13.8378 3.60932C15.3999 2.04722 17.9325 2.04722 19.4946 3.60932L27.8852 11.9998H5.44727L13.8378 3.60932Z" fill="#C4DAF9"/>
<path d="M3.54944 10.8551C3.4347 10.0519 4.05798 9.33325 4.86938 9.33325H28.4614C29.2728 9.33325 29.896 10.0519 29.7813 10.8551L27.8226 24.5656C27.5411 26.5362 25.8534 27.9999 23.8628 27.9999H9.46788C7.47728 27.9999 5.78959 26.5362 5.50808 24.5656L3.54944 10.8551Z" fill="#1570EF"/>
<path fill-rule="evenodd" clip-rule="evenodd" d="M11.3324 14.6666C12.0687 14.6666 12.6657 15.2636 12.6657 16V21.3333C12.6657 22.0697 12.0687 22.6666 11.3324 22.6666C10.596 22.6666 9.99902 22.0697 9.99902 21.3333V16C9.99902 15.2636 10.596 14.6666 11.3324 14.6666Z" fill="#C4DAF9"/>
<path fill-rule="evenodd" clip-rule="evenodd" d="M16.6654 14.6666C17.4017 14.6666 17.9987 15.2636 17.9987 16V21.3333C17.9987 22.0697 17.4017 22.6666 16.6654 22.6666C15.929 22.6666 15.332 22.0697 15.332 21.3333V16C15.332 15.2636 15.929 14.6666 16.6654 14.6666Z" fill="#C4DAF9"/>
<path fill-rule="evenodd" clip-rule="evenodd" d="M21.9993 14.6666C22.7357 14.6666 23.3327 15.2636 23.3327 16V21.3333C23.3327 22.0697 22.7357 22.6666 21.9993 22.6666C21.263 22.6666 20.666 22.0697 20.666 21.3333V16C20.666 15.2636 21.263 14.6666 21.9993 14.6666Z" fill="#C4DAF9"/>
</svg>
