<svg width="149" height="40" viewBox="0 0 149 40" fill="none" xmlns="http://www.w3.org/2000/svg">
<g id="champion-logo 1" opacity="0.15" clip-path="url(#clip0_622_65439)">
<path id="Vector" d="M44.8405 4.67262C44.3271 8.1041 43.3004 16.4277 45.5006 24.6782C45.9407 25.7731 47.0407 25.4812 47.4808 24.9701C47.6275 24.7511 49.0941 23.3638 49.0941 23.3638C49.6075 22.6335 50.1208 22.8525 50.4875 23.3638C50.8542 23.8752 51.8809 25.4812 53.421 25.5541C54.9608 25.627 57.381 23.8018 58.3342 23.0715C58.9943 24.3129 59.8008 25.4812 61.121 25.4078C62.4411 25.3349 63.6876 24.3858 64.7878 23.2175C65.5946 24.1668 66.4746 25.1888 67.5013 25.1159C68.5278 25.043 70.4348 23.9476 72.2681 22.2682C73.0014 21.4652 73.8081 21.8303 74.3213 22.6333C74.8344 23.4363 75.568 24.7506 76.5214 24.7506C77.4747 24.7506 78.8678 23.4363 79.3077 23.0712C79.7479 22.7067 80.1878 22.4143 80.7014 22.9983L81.8013 24.0203C82.4614 24.6777 83.8548 24.5317 84.8813 23.5823C85.908 22.633 86.128 22.3414 86.5678 22.3414C87.008 22.3414 87.2279 22.9254 87.6678 23.3634C88.1079 23.8013 91.4813 26.7219 95.9549 22.1951C96.0281 24.4587 95.5147 37.1624 95.5147 38.9881C95.5147 39.8641 96.5412 40.1564 98.0083 39.8641C99.4747 39.5722 100.208 39.1337 100.135 37.0168C100.061 34.8995 99.7681 24.4587 99.7681 24.4587C99.9883 22.7793 101.455 20.0048 102.995 19.9319C104.535 19.8587 103.801 21.7571 103.068 21.7571C102.335 21.7571 101.528 22.1222 101.528 22.7791C101.528 23.436 101.748 25.3344 106.075 25.3344C110.402 25.3344 110.915 23.9471 112.089 23.436C112.822 24.8233 115.022 27.0141 121.109 23.1441C122.355 24.6041 124.702 26.4298 127.269 24.6041C128.075 23.9471 128.882 22.4138 128.589 21.0995C128.369 20.5886 128.515 20.3696 128.882 20.3696H131.302C131.816 20.3696 132.696 20.7346 132.989 22.1948C133.282 23.6553 134.309 24.8965 135.115 24.8231C135.922 24.7502 137.462 23.5092 138.342 22.6328C139.076 23.6553 142.229 28.4011 148.022 20.4425C148.536 19.7124 147.729 19.3474 147.289 19.8585C146.849 20.3696 145.529 21.1728 144.429 21.2455C143.329 21.3189 142.009 20.2235 140.982 18.8363C139.956 17.449 138.782 17.9599 138.049 19.0552C137.535 19.6393 137.242 20.2233 136.655 20.8802C136.289 20.2233 135.849 18.8363 135.115 18.3252C134.382 17.814 133.795 17.7411 132.035 18.1791C130.275 18.617 128.295 18.8363 126.315 18.9092C125.215 18.8363 125.509 19.3474 125.582 19.7853C125.655 20.2235 126.462 22.0485 124.995 22.1219C123.529 22.1948 123.675 20.0046 124.702 18.8363C125.215 18.3251 124.482 17.2298 123.675 17.668C122.869 18.1062 122.355 18.3251 121.695 19.3471C121.035 20.3694 119.642 21.9027 117.368 21.9756C115.095 22.0485 115.755 19.4203 115.828 18.252C115.828 17.5948 115.388 17.0108 114.215 17.3029C113.041 17.5951 111.501 17.449 111.648 20.6613C110.842 21.8295 109.008 22.5596 107.541 22.3407C107.101 22.2673 106.955 22.0483 107.101 21.5377C107.248 21.0263 107.615 18.1791 105.415 17.4488C103.215 16.7187 101.528 17.7409 100.428 18.69C99.8414 18.9821 99.6947 18.69 99.6947 18.1788L99.7679 15.4775C99.7679 14.2363 97.2745 13.9441 96.9079 15.4043C96.5412 16.8645 96.1013 19.7122 93.9014 20.7344C91.7012 21.7564 90.9679 20.442 89.7945 18.9818C88.6211 17.5217 87.4479 17.5946 86.1277 18.9089L84.8076 20.1501C84.2942 20.5881 84.001 20.442 83.5611 19.7849C83.121 19.1279 82.8276 18.2515 82.021 18.1786C81.2145 18.1057 81.0675 18.3976 80.4809 18.8358L78.7944 20.1501C78.1345 20.661 77.9878 20.661 77.328 19.7849C77.328 19.7849 76.2278 17.9596 75.1281 17.9596C74.0279 17.9596 73.6612 18.6168 73.0014 19.1279C73.0014 19.1279 71.3146 20.2962 70.728 20.8071C70.1414 21.3184 68.4546 22.3404 66.8412 19.9309C66.2546 19.0548 65.2279 18.3976 64.4946 19.6388C63.7613 20.8798 62.5881 22.7781 61.7081 22.1941C60.828 21.6101 62.2947 19.9309 63.3946 19.7846C64.4946 19.6388 63.8348 18.2513 62.7346 18.1784C61.6343 18.1055 59.8745 18.8355 59.0678 19.7846C58.2612 20.7339 56.9411 21.8288 55.6212 21.7562C54.3012 21.6828 54.0078 20.6608 53.3477 19.2737C52.6877 17.8865 51.5145 18.0325 50.6345 18.7626C49.7544 19.4927 49.5342 19.7117 48.8744 20.5147C48.2143 21.3182 48.2143 20.8798 48.1411 20.3691C48.0676 19.858 47.6277 10.4392 48.3613 4.37929C48.6537 2.84739 45.5003 2.33628 44.8405 4.67262Z" fill="black"/>
<path id="Vector_2" d="M114.214 15.925C115.474 15.925 116.495 14.9081 116.495 13.6535C116.495 12.3989 115.474 11.3819 114.214 11.3819C112.954 11.3819 111.932 12.3989 111.932 13.6535C111.932 14.9081 112.954 15.925 114.214 15.925ZM41.1725 18.2533C40.8794 18.4725 32.5925 21.2465 28.0457 21.5389V4.59977C30.6858 4.67268 35.6725 5.76806 38.8259 6.93611C39.5592 7.30116 41.0993 6.8632 39.486 5.25695C35.7457 2.26343 29.879 0 22.1055 0C14.332 0 0.398438 4.30788 0.398438 13.0692C0.398438 21.8306 11.5453 26.2116 22.1788 26.2116C29.659 26.2116 36.6257 23.51 41.6859 18.6912C42.4927 17.8882 41.4657 18.0343 41.1725 18.2533ZM16.0177 21.5262C9.68775 20.2281 5.20073 16.9638 5.20073 13.1424C5.20073 9.32242 9.69135 6.05924 16.0177 4.76018V21.5262ZM144.753 16.0601C144.162 16.0601 143.682 16.5232 143.682 17.0886C143.682 17.6659 144.162 18.1289 144.753 18.1289C145.342 18.1289 145.819 17.6659 145.819 17.0886C145.819 16.5229 145.342 16.0601 144.753 16.0601ZM144.753 17.9267C144.271 17.9267 143.885 17.5605 143.885 17.0886C143.885 16.6315 144.271 16.2621 144.753 16.2621C145.23 16.2621 145.616 16.6312 145.616 17.0886C145.616 17.5605 145.23 17.9267 144.753 17.9267Z" fill="black"/>
<path id="Vector_3" d="M145.296 16.8185C145.296 16.7217 145.252 16.6193 145.164 16.5694C145.073 16.5196 144.972 16.5137 144.872 16.5137H144.352V17.6712H144.528V17.1379H144.737L145.078 17.6712H145.282L144.919 17.1379C145.131 17.1321 145.296 17.0473 145.296 16.8185ZM144.722 16.9942H144.528V16.6456H144.837C144.987 16.6456 145.12 16.6662 145.12 16.8154C145.12 17.0236 144.89 16.9942 144.722 16.9942Z" fill="black"/>
</g>
<defs>
<clipPath id="clip0_622_65439">
<rect width="147.831" height="39.9746" fill="white" transform="translate(0.375)"/>
</clipPath>
</defs>
</svg>
