<svg width="417" height="321" viewBox="0 0 417 321" fill="none" xmlns="http://www.w3.org/2000/svg">
<path d="M157.405 314.105C180.208 320.938 204.131 323.207 227.809 320.781C251.487 318.355 274.456 311.282 295.404 299.966C316.351 288.651 334.868 273.314 349.896 254.833C364.924 236.352 376.17 215.088 382.992 192.255C389.814 169.423 392.079 145.468 389.657 121.759C387.235 98.0504 380.174 75.051 368.877 54.0742C357.58 33.0973 342.267 14.5535 323.813 -0.497947C305.359 -15.5494 284.124 -26.8138 261.322 -33.6472C238.519 -40.4807 214.596 -42.7493 190.918 -40.3234C167.24 -37.8974 144.271 -30.8245 123.324 -19.5089C102.376 -8.1933 83.8594 7.14323 68.8312 25.6245C53.8029 44.1057 42.557 65.3697 35.735 88.2024C28.913 111.035 26.6484 134.989 29.0702 158.698C31.492 182.407 38.5529 205.406 49.8502 226.383C61.1475 247.36 76.4602 265.904 94.9144 280.955C113.369 296.007 134.603 307.271 157.405 314.105L157.405 314.105Z" stroke="#E50000" stroke-width="16.2882"/>
<path fill-rule="evenodd" clip-rule="evenodd" d="M209.109 313.752C113.275 313.752 35.5849 236.062 35.5849 140.228C35.5849 44.3937 113.275 -33.2955 209.109 -33.2955C304.944 -33.2955 382.633 44.3937 382.633 140.228C382.633 167.987 376.115 194.222 364.526 217.49C361.447 223.673 360.422 230.74 362.207 237.412L372.542 276.04C377.029 292.808 361.688 308.148 344.92 303.662L306.293 293.327C299.62 291.541 292.553 292.567 286.37 295.645C263.103 307.235 236.867 313.752 209.109 313.752ZM278.518 161.919C285.706 161.919 291.533 167.746 291.533 174.933C291.533 182.121 285.706 187.948 278.518 187.948H183.08C175.893 187.948 170.066 182.121 170.066 174.933C170.066 167.746 175.893 161.919 183.08 161.919H278.518ZM291.533 114.2C291.533 107.012 285.706 101.186 278.518 101.186H139.699C132.512 101.186 126.685 107.012 126.685 114.2C126.685 121.387 132.512 127.214 139.699 127.214H278.518C285.706 127.214 291.533 121.387 291.533 114.2Z" fill="white"/>
<rect x="127.398" y="100.311" width="165.054" height="27.1471" rx="13.5735" fill="#E50000"/>
<rect x="127.398" y="161.121" width="165.054" height="27.1471" rx="13.5735" fill="#E50000"/>
</svg>
