<svg width="279" height="278" viewBox="0 0 279 278" fill="none" xmlns="http://www.w3.org/2000/svg">
<path opacity="0.5" fill-rule="evenodd" clip-rule="evenodd" d="M139.596 277.435C216.173 277.435 278.252 215.356 278.252 138.78C278.252 62.2027 216.173 0.124756 139.596 0.124756C63.0194 0.124756 0.941406 62.2027 0.941406 138.78C0.941406 160.96 6.14957 181.924 15.4095 200.516C17.8704 205.456 18.6894 211.104 17.2628 216.435L9.00434 247.301C5.41927 260.699 17.6772 272.956 31.076 269.372L61.9412 261.114C67.273 259.687 72.9202 260.507 77.8607 262.966C96.4521 272.227 117.416 277.435 139.596 277.435ZM84.1344 156.112C78.3912 156.112 73.7353 160.768 73.7353 166.511C73.7353 172.254 78.3912 176.91 84.1344 176.91H160.395C166.138 176.91 170.794 172.254 170.794 166.511C170.794 160.768 166.138 156.112 160.395 156.112H84.1344ZM73.7353 117.982C73.7353 112.238 78.3912 107.582 84.1344 107.582H195.059C200.802 107.582 205.458 112.238 205.458 117.982C205.458 123.725 200.802 128.381 195.059 128.381H84.1344C78.3912 128.381 73.7353 123.725 73.7353 117.982Z" fill="white"/>
</svg>
