<svg width="32" height="32" viewBox="0 0 32 32" fill="none" xmlns="http://www.w3.org/2000/svg">
<path d="M14.667 6.66653C14.667 5.93015 14.0682 5.32554 13.3364 5.40719C11.4338 5.61946 9.60265 6.28481 8.00015 7.35556C6.02676 8.67414 4.48869 10.5483 3.58044 12.741C2.67219 14.9337 2.43455 17.3465 2.89757 19.6743C3.3606 22.0021 4.50349 24.1402 6.18172 25.8185C7.85995 27.4967 9.99814 28.6396 12.3259 29.1026C14.6537 29.5656 17.0665 29.328 19.2592 28.4198C21.4519 27.5115 23.3261 25.9734 24.6446 24C25.7154 22.3975 26.3807 20.5664 26.593 18.6638C26.6747 17.932 26.07 17.3332 25.3337 17.3332H20.0109C19.2745 17.3332 18.6982 17.9461 18.4579 18.6421C18.3464 18.9651 18.1935 19.2742 18.0016 19.5613C17.5609 20.2209 16.9346 20.7349 16.2018 21.0384C15.4689 21.342 14.6625 21.4214 13.8846 21.2667C13.1066 21.1119 12.392 20.7299 11.8311 20.1691C11.2702 19.6082 10.8883 18.8936 10.7335 18.1156C10.5788 17.3376 10.6582 16.5313 10.9618 15.7984C11.2653 15.0656 11.7793 14.4392 12.4389 13.9986C12.726 13.8067 13.0351 13.6538 13.3581 13.5423C14.0541 13.3019 14.667 12.7257 14.667 11.9893V6.66653Z" fill="#01A63E"/>
<path d="M27.9997 14.6666C28.7361 14.6666 29.3407 14.0678 29.259 13.336C29.1342 12.2169 28.8522 11.1187 28.4196 10.0744C27.8165 8.61845 26.9326 7.29559 25.8183 6.18128C24.704 5.06698 23.3811 4.18307 21.9252 3.58001C20.8808 3.14741 19.7827 2.86542 18.6636 2.74056C17.9318 2.65891 17.333 3.26352 17.333 3.9999V9.32271C17.333 10.0591 17.9459 10.6353 18.6419 10.8756C18.718 10.9019 18.7933 10.9305 18.8678 10.9613C19.3543 11.1629 19.7965 11.4583 20.1689 11.8307C20.5413 12.2031 20.8367 12.6452 21.0383 13.1318C21.0691 13.2063 21.0977 13.2816 21.1239 13.3576C21.3643 14.0537 21.9405 14.6666 22.6769 14.6666H27.9997Z" fill="#BCE7C9"/>
</svg>
