<svg width="14" height="18" viewBox="0 0 14 18" fill="none" xmlns="http://www.w3.org/2000/svg">
<g id="Frame 20636" clip-path="url(#clip0_930_246)">
<g id="Group 1000001981">
<g id="Group 10948">
<g id="icon">
<path id="Ellipse 5" d="M2.73328 6.82997C3.89118 6.82997 4.82984 5.8913 4.82984 4.7334C4.82984 3.5755 3.89118 2.63684 2.73328 2.63684C1.57538 2.63684 0.636719 3.5755 0.636719 4.7334C0.636719 5.8913 1.57538 6.82997 2.73328 6.82997Z" fill="white"/>
<path id="Ellipse 6" d="M11.2841 15.3637C12.442 15.3637 13.3806 14.4251 13.3806 13.2672C13.3806 12.1093 12.442 11.1706 11.2841 11.1706C10.1262 11.1706 9.1875 12.1093 9.1875 13.2672C9.1875 14.4251 10.1262 15.3637 11.2841 15.3637Z" fill="white"/>
<path id="Path 14" d="M2.27162 15.3123C1.90557 15.2299 1.56838 15.0507 1.29527 14.7934C1.02216 14.5361 0.823142 14.2102 0.719016 13.8497C0.61489 13.4893 0.609473 13.1074 0.703331 12.7442C0.79719 12.3809 0.986879 12.0495 1.25258 11.7846L9.80272 3.24915C10.0528 2.99953 10.362 2.8172 10.7014 2.71914C11.0409 2.62108 11.3997 2.61046 11.7443 2.68828C12.1104 2.77072 12.4476 2.94993 12.7207 3.20721C12.9938 3.46449 13.1928 3.79039 13.2969 4.15086C13.4011 4.51133 13.4065 4.89315 13.3126 5.25643C13.2188 5.61971 13.0291 5.95112 12.7634 6.21605L4.21367 14.7514C3.96354 15.0011 3.65431 15.1835 3.31476 15.2816C2.9752 15.3796 2.61636 15.3902 2.27162 15.3123Z" fill="white"/>
</g>
</g>
</g>
</g>
<defs>
<clipPath id="clip0_930_246">
<rect width="12.7273" height="17.8182" fill="white" transform="translate(0.636719 0.0908813)"/>
</clipPath>
</defs>
</svg>
