<svg width="132" height="40" viewBox="0 0 132 40" fill="none" xmlns="http://www.w3.org/2000/svg">
<path d="M56.8657 31.4331L52.2114 37.9416H56.9816V39.6124H49.8359V37.9416L54.4903 31.4331H49.9518V29.7817H56.8657V31.4331Z" fill="white"/>
<path d="M68.8807 32.385C69.827 32.385 70.5223 32.5793 70.9665 32.9679C71.4107 33.3564 71.6424 34.017 71.6424 34.969V39.6123H69.9815L69.7691 38.5438C69.0545 39.3597 68.1855 39.7872 67.1812 39.7872C66.5053 39.7872 65.9645 39.6123 65.5397 39.2432C65.1148 38.8935 64.9023 38.3883 64.9023 37.7472V37.0284C64.9023 36.4649 65.0955 36.0375 65.4624 35.7072C65.8487 35.3964 66.3701 35.241 67.0267 35.241H69.518V34.9301C69.518 34.5804 69.4408 34.3278 69.2863 34.2113C69.1318 34.0947 68.8228 34.017 68.3786 34.017C67.6061 34.017 66.6212 34.0558 65.4238 34.1335L65.2307 32.7153C66.5246 32.5016 67.7413 32.385 68.8807 32.385ZM69.518 36.5426H67.6254C67.1812 36.5426 66.9495 36.7564 66.9495 37.2032V37.4752C66.9495 37.9609 67.2199 38.2135 67.7799 38.2135C68.34 38.2135 68.9194 37.9803 69.518 37.5335V36.5426Z" fill="white"/>
<path d="M82.2216 29.6459V32.0744C82.2216 32.5601 82.183 33.0458 82.0864 33.551C83.0713 32.7738 84.0177 32.3853 84.9447 32.3853C85.582 32.3853 86.0648 32.5601 86.3931 32.8904C86.7214 33.2207 86.8952 33.7064 86.8952 34.3475V39.632H84.8095V35.0081C84.8095 34.6972 84.7515 34.4641 84.655 34.3475C84.5584 34.231 84.3846 34.1727 84.1142 34.1727C83.6121 34.1727 82.9555 34.3864 82.1637 34.8138V39.6126H80.0586V29.6265L82.2216 29.6459Z" fill="white"/>
<path d="M98.6787 32.385C99.8375 32.385 100.687 32.5793 101.209 32.9873C101.73 33.3953 102 34.017 102 34.833C102 35.4935 101.827 35.9792 101.498 36.3095C101.151 36.6398 100.629 36.7952 99.8761 36.7952H97.3462C97.4041 37.3004 97.5586 37.6501 97.8097 37.8249C98.0607 37.9998 98.447 38.0969 99.007 38.0969C99.7409 38.0969 100.61 38.0386 101.614 37.9415L101.827 39.2626C101.093 39.6123 100.089 39.7872 98.7753 39.7872C97.462 39.7872 96.535 39.4957 95.975 38.9323C95.4149 38.3689 95.1445 37.4169 95.1445 36.1152C95.1445 34.7358 95.4149 33.7644 95.9557 33.2204C96.4964 32.657 97.4041 32.385 98.6787 32.385ZM98.756 33.9198C98.2152 33.9198 97.8483 34.017 97.6552 34.2307C97.462 34.4444 97.3462 34.8718 97.3269 35.5324H99.316C99.5864 35.5324 99.7602 35.4741 99.8375 35.3381C99.934 35.2021 99.9727 35.0272 99.9727 34.7941C99.9727 34.4638 99.8954 34.2307 99.7216 34.1141C99.5285 33.9976 99.2195 33.9198 98.756 33.9198Z" fill="white"/>
<path d="M113.452 32.385C114.611 32.385 115.461 32.5793 115.982 32.9873C116.504 33.3953 116.774 34.017 116.774 34.833C116.774 35.4935 116.6 35.9792 116.272 36.3095C115.924 36.6398 115.403 36.7952 114.65 36.7952H112.12C112.178 37.3004 112.332 37.6501 112.583 37.8249C112.834 37.9998 113.22 38.0969 113.78 38.0969C114.514 38.0969 115.383 38.0386 116.388 37.9415L116.6 39.2626C115.866 39.6123 114.862 39.7872 113.549 39.7872C112.235 39.7872 111.308 39.4957 110.748 38.9323C110.188 38.3689 109.918 37.4169 109.918 36.1152C109.918 34.7358 110.188 33.7644 110.729 33.2204C111.251 32.657 112.158 32.385 113.452 32.385ZM113.51 33.9198C112.969 33.9198 112.602 34.017 112.409 34.2307C112.216 34.4444 112.1 34.8718 112.081 35.5324H114.07C114.341 35.5324 114.514 35.4741 114.592 35.3381C114.688 35.2021 114.727 35.0272 114.727 34.7941C114.727 34.4638 114.65 34.2307 114.476 34.1141C114.283 33.9976 113.974 33.9198 113.51 33.9198Z" fill="white"/>
<path d="M131.644 39.6127H129.983L129.809 38.583C129.133 39.3795 128.245 39.7681 127.144 39.7681C126.275 39.7681 125.657 39.4573 125.251 38.8355C124.865 38.2138 124.672 37.2619 124.672 36.0185C124.672 34.6779 124.884 33.7259 125.329 33.1819C125.753 32.6379 126.429 32.3659 127.356 32.3659C128.245 32.3659 128.998 32.5797 129.635 33.0071C129.597 32.4825 129.558 31.9968 129.558 31.55V29.646H131.663V39.6127H131.644ZM128.052 33.9591C127.588 33.9591 127.26 34.0951 127.086 34.3476C126.912 34.6196 126.816 35.1636 126.816 36.0185C126.816 36.8344 126.893 37.3784 127.067 37.6504C127.24 37.9224 127.53 38.0584 127.974 38.0584C128.264 38.0584 128.515 38.0196 128.728 37.9418C128.94 37.8641 129.21 37.7087 129.539 37.495V34.2311C128.921 34.0368 128.419 33.9591 128.052 33.9591Z" fill="white"/>
<path d="M83.3951 21.9722C83.1248 21.7002 82.7385 21.5642 82.275 21.5642H81.8694C81.4059 21.5642 81.0197 21.7002 80.7493 21.9722C80.4789 22.2248 80.3438 22.6716 80.3438 23.2933C80.3438 23.915 80.4789 24.3619 80.7493 24.6144C81.0197 24.8864 81.4059 25.0224 81.8694 25.0224H82.275C82.7385 25.0224 83.1054 24.8864 83.3951 24.6144C83.6655 24.3424 83.8007 23.8956 83.8007 23.2933C83.82 22.691 83.6848 22.2442 83.3951 21.9722Z" fill="white"/>
<path d="M87.0875 21.5835H86.6819C86.2184 21.5835 85.8515 21.7195 85.5618 21.9915C85.2914 22.2441 85.1562 22.6909 85.1562 23.3126C85.1562 23.9343 85.2914 24.3812 85.5618 24.6337C85.8322 24.9057 86.2184 25.0417 86.6819 25.0417H87.0875C87.551 25.0417 87.9179 24.9057 88.2076 24.6337C88.478 24.3617 88.6132 23.9149 88.6132 23.3126C88.6132 22.6909 88.478 22.2441 88.2076 21.9915C87.9373 21.7001 87.551 21.5835 87.0875 21.5835Z" fill="white"/>
<path d="M104.949 19.4463C106.107 19.1549 107.208 18.7275 108.232 18.1641L108.29 18.1446L108.348 18.1641C109.371 18.7275 110.491 19.1549 111.631 19.4463C112.79 19.7377 114.006 19.8737 115.262 19.8737H119.452L121.596 16.6875V15.9687C121.596 14.4921 121.461 13.1516 121.21 12.0053C120.959 10.8591 120.534 9.7905 119.974 8.83852C119.414 7.88654 118.68 6.97341 117.772 6.15743C116.884 5.34144 115.783 4.52546 114.489 3.7289L108.966 0.348389L107.652 2.54378H107.594C106.803 2.64092 106.03 2.89349 105.354 3.32091C104.659 3.7289 104.06 4.27289 103.539 4.89459C103.037 5.51629 102.612 6.25457 102.303 7.07055C101.994 7.88654 101.839 8.76081 101.839 9.67393C101.839 10.9173 102.168 12.1607 102.805 13.3264C103.442 14.5116 104.389 15.5801 105.586 16.5127L105.663 16.5709L105.509 16.8624H90.7733C88.591 16.8624 87.4902 15.755 87.4902 13.5596V7.75054H85.0954V13.5596C85.0954 15.755 83.9946 16.8624 81.8123 16.8624H67.6369C67.2313 16.8624 66.8644 16.7847 66.5361 16.6292C66.2078 16.4738 65.8988 16.2018 65.5898 15.8132C65.2808 15.4247 64.9911 14.9196 64.7014 14.2784C64.4117 13.6567 64.0834 12.8213 63.7164 11.811L59.9698 1.43637L57.5364 2.33007L61.0706 12.1219C61.3989 12.9962 61.6114 13.6373 61.7466 14.0841C61.8818 14.5116 61.9397 14.8807 61.9397 15.1915C61.9397 15.5413 61.8624 15.8132 61.7466 16.027C61.6114 16.2407 61.3603 16.4155 61.0127 16.5321C60.6844 16.6487 60.2402 16.7264 59.6801 16.7847C59.1394 16.8429 58.4634 16.8624 57.5944 16.8624H52.4573V14.0259H50.0625V16.8041C50.0625 17.8338 50.3329 18.5915 50.8929 19.0966C51.453 19.6018 52.1676 19.8737 53.0366 19.8737H57.5751C59.1201 19.8737 60.2788 19.6212 61.0513 19.116C61.8045 18.6303 62.268 17.7755 62.4225 16.5904L62.4418 16.4932H62.7894L62.8281 16.5515C63.1178 17.1732 63.4268 17.6978 63.7551 18.1058C64.0641 18.5138 64.431 18.8635 64.8173 19.116C65.2035 19.3686 65.6477 19.5629 66.1498 19.6795C66.652 19.796 67.2313 19.8543 67.888 19.8543H79.8424C81.5033 19.8543 82.7393 19.5823 83.5118 19.0772C84.2843 18.5526 84.8057 17.6201 85.0761 16.2795L85.0954 16.1824H85.4623L85.4817 16.2601C86.061 18.6498 88.0502 19.8543 91.4106 19.8543H101.395C102.573 19.8737 103.809 19.7377 104.949 19.4463ZM113.755 13.3459C114.393 12.1802 114.721 10.9562 114.721 9.71279C114.721 8.85795 114.566 8.02253 114.277 7.24541L114.257 7.18712L114.489 6.95398L114.566 7.01227C115.358 7.55626 116.053 8.1391 116.652 8.76081C117.231 9.38251 117.734 10.0625 118.101 10.8202C118.467 11.5779 118.757 12.4133 118.931 13.307C119.105 14.2007 119.201 15.2304 119.201 16.3572V16.8818H111.051L110.897 16.5904L110.974 16.5321C112.172 15.5995 113.118 14.531 113.755 13.3459ZM105.335 13.0739C104.601 12.0053 104.234 10.8785 104.234 9.71279C104.234 8.35281 104.582 7.24541 105.277 6.42942C105.972 5.61344 106.938 5.18601 108.097 5.18601H108.464C109.622 5.18601 110.588 5.59401 111.283 6.42942C111.978 7.24541 112.326 8.35281 112.326 9.71279C112.326 10.8785 111.959 12.0053 111.225 13.0739C110.491 14.1424 109.526 15.0361 108.328 15.7355L108.27 15.7744L108.212 15.7355C107.034 15.0361 106.069 14.1424 105.335 13.0739Z" fill="white"/>
<path d="M128.955 0.36792H128.549C128.086 0.36792 127.719 0.503919 127.429 0.775914C127.159 1.04791 127.023 1.47533 127.023 2.09703C127.023 2.71873 127.159 3.16558 127.429 3.41815C127.699 3.69015 128.066 3.82614 128.549 3.82614H128.955C129.418 3.82614 129.785 3.69015 130.075 3.41815C130.345 3.14616 130.48 2.71873 130.48 2.09703C130.48 1.47533 130.345 1.02848 130.075 0.775914C129.785 0.503919 129.418 0.36792 128.955 0.36792Z" fill="white"/>
<path d="M126.908 26.4209C128.067 25.8575 129.013 25.0998 129.689 24.1478C130.384 23.1959 130.886 22.0885 131.176 20.845C131.466 19.6016 131.62 18.2805 131.62 16.9205C131.62 14.9 131.427 12.7046 131.021 10.4315L130.558 7.69214L128.163 8.17784L128.916 12.2966C129.032 13.0155 129.148 13.7732 129.206 14.5697C129.283 15.3663 129.322 16.124 129.322 16.8428C129.322 17.8142 129.225 18.7662 129.013 19.6599C128.82 20.5536 128.453 21.3502 127.951 22.0302C127.449 22.7102 126.734 23.2541 125.865 23.6621C124.996 24.0701 123.837 24.2644 122.466 24.2644H121.191V27.2564H122.466C124.281 27.2758 125.768 26.9844 126.908 26.4209Z" fill="white"/>
<path d="M6.78588 13.2682C10.3697 13.2682 13.2749 10.3455 13.2749 6.74028C13.2749 3.13503 10.3697 0.212402 6.78588 0.212402C3.2021 0.212402 0.296875 3.13503 0.296875 6.74028C0.296875 10.3455 3.2021 13.2682 6.78588 13.2682Z" fill="#FF0000"/>
<path d="M33.2078 39.7875C36.7915 39.7875 39.6968 36.8648 39.6968 33.2596C39.6968 29.6543 36.7915 26.7317 33.2078 26.7317C29.624 26.7317 26.7188 29.6543 26.7188 33.2596C26.7188 36.8648 29.624 39.7875 33.2078 39.7875Z" fill="#FF0000"/>
<path d="M5.356 39.6319C0.373373 38.505 -1.40338 32.288 2.20806 28.6744L28.6469 2.13541C30.2112 0.561726 32.4901 -0.0988332 34.6531 0.386872C39.6357 1.51371 41.4125 7.73074 37.801 11.3444L11.3622 37.8833C9.77857 39.457 7.51901 40.1176 5.356 39.6319Z" fill="#FF0000"/>
</svg>
