<svg width="130" height="40" viewBox="0 0 130 40" fill="none" xmlns="http://www.w3.org/2000/svg">
<path d="M56.0047 31.0926L51.4504 37.4233H56.1181V39.0485H49.126V37.4233L53.6803 31.0926H49.2394V29.4863H56.0047V31.0926Z" fill="black"/>
<path d="M67.7591 32.0186C68.6851 32.0186 69.3654 32.2075 69.8001 32.5855C70.2347 32.9634 70.4615 33.606 70.4615 34.5319V39.0485H68.8363L68.6284 38.0091C67.9292 38.8028 67.0788 39.2186 66.0961 39.2186C65.4347 39.2186 64.9056 39.0485 64.4898 38.6894C64.0741 38.3493 63.8662 37.8579 63.8662 37.2343V36.5351C63.8662 35.9871 64.0552 35.5713 64.4142 35.2501C64.7922 34.9477 65.3024 34.7965 65.945 34.7965H68.3828V34.4941C68.3828 34.154 68.3072 33.9083 68.156 33.7949C68.0048 33.6815 67.7024 33.606 67.2678 33.606C66.5119 33.606 65.5481 33.6438 64.3764 33.7193L64.1875 32.3398C65.4536 32.1319 66.6442 32.0186 67.7591 32.0186ZM68.3828 36.0626H66.5308C66.0961 36.0626 65.8694 36.2705 65.8694 36.7052V36.9697C65.8694 37.4422 66.1339 37.6878 66.682 37.6878C67.23 37.6878 67.7969 37.4611 68.3828 37.0264V36.0626Z" fill="black"/>
<path d="M80.8177 29.3539V31.7161C80.8177 32.1885 80.7799 32.6609 80.6854 33.1523C81.6492 32.3964 82.5752 32.0184 83.4823 32.0184C84.1059 32.0184 84.5783 32.1885 84.8996 32.5098C85.2209 32.831 85.3909 33.3035 85.3909 33.9271V39.0672H83.35V34.5696C83.35 34.2672 83.2933 34.0405 83.1988 33.9271C83.1043 33.8137 82.9342 33.757 82.6697 33.757C82.1783 33.757 81.5358 33.9649 80.761 34.3806V39.0484H78.7012V29.335L80.8177 29.3539Z" fill="black"/>
<path d="M96.9182 32.0186C98.0521 32.0186 98.8836 32.2075 99.3938 32.6044C99.9041 33.0012 100.169 33.606 100.169 34.3997C100.169 35.0422 99.9986 35.5146 99.6773 35.8359C99.3371 36.1571 98.8269 36.3083 98.0899 36.3083H95.6143C95.671 36.7997 95.8222 37.1398 96.0678 37.3099C96.3135 37.48 96.6915 37.5745 97.2395 37.5745C97.9576 37.5745 98.808 37.5178 99.7907 37.4233L99.9986 38.7083C99.2804 39.0485 98.2978 39.2186 97.0127 39.2186C95.7277 39.2186 94.8206 38.9351 94.2726 38.3871C93.7245 37.839 93.46 36.913 93.46 35.6469C93.46 34.3052 93.7245 33.3603 94.2537 32.8312C94.7828 32.2831 95.671 32.0186 96.9182 32.0186ZM96.9938 33.5115C96.4647 33.5115 96.1056 33.606 95.9167 33.8138C95.7277 34.0217 95.6143 34.4375 95.5954 35.08H97.5419C97.8064 35.08 97.9765 35.0233 98.0521 34.891C98.1466 34.7587 98.1844 34.5886 98.1844 34.3619C98.1844 34.0406 98.1088 33.8138 97.9387 33.7004C97.7497 33.5871 97.4474 33.5115 96.9938 33.5115Z" fill="black"/>
<path d="M111.375 32.0186C112.509 32.0186 113.341 32.2075 113.851 32.6044C114.361 33.0012 114.626 33.606 114.626 34.3997C114.626 35.0422 114.456 35.5146 114.134 35.8359C113.794 36.1571 113.284 36.3083 112.547 36.3083H110.071C110.128 36.7997 110.279 37.1398 110.525 37.3099C110.771 37.48 111.148 37.5745 111.697 37.5745C112.415 37.5745 113.265 37.5178 114.248 37.4233L114.456 38.7083C113.737 39.0485 112.755 39.2186 111.47 39.2186C110.185 39.2186 109.278 38.9351 108.73 38.3871C108.182 37.839 107.917 36.913 107.917 35.6469C107.917 34.3052 108.182 33.3603 108.711 32.8312C109.221 32.2831 110.109 32.0186 111.375 32.0186ZM111.432 33.5115C110.903 33.5115 110.544 33.606 110.355 33.8138C110.166 34.0217 110.052 34.4375 110.034 35.08H111.98C112.245 35.08 112.415 35.0233 112.49 34.891C112.585 34.7587 112.623 34.5886 112.623 34.3619C112.623 34.0406 112.547 33.8138 112.377 33.7004C112.188 33.5871 111.886 33.5115 111.432 33.5115Z" fill="black"/>
<path d="M129.177 39.048H127.551L127.381 38.0464C126.72 38.8212 125.851 39.1992 124.773 39.1992C123.923 39.1992 123.318 38.8968 122.921 38.2921C122.543 37.6874 122.354 36.7614 122.354 35.5519C122.354 34.248 122.562 33.322 122.997 32.7929C123.413 32.2638 124.074 31.9992 124.981 31.9992C125.851 31.9992 126.588 32.2071 127.211 32.6228C127.173 32.1126 127.136 31.6401 127.136 31.2055V29.3535H129.195V39.048H129.177ZM125.662 33.5488C125.208 33.5488 124.887 33.6811 124.717 33.9267C124.547 34.1913 124.452 34.7204 124.452 35.5519C124.452 36.3456 124.528 36.8748 124.698 37.1393C124.868 37.4039 125.151 37.5362 125.586 37.5362C125.869 37.5362 126.115 37.4984 126.323 37.4228C126.531 37.3472 126.795 37.196 127.117 36.9882V33.8134C126.512 33.6244 126.021 33.5488 125.662 33.5488Z" fill="black"/>
<path d="M81.9702 21.889C81.7056 21.6245 81.3277 21.4922 80.8741 21.4922H80.4773C80.0237 21.4922 79.6458 21.6245 79.3812 21.889C79.1167 22.1347 78.9844 22.5694 78.9844 23.1741C78.9844 23.7788 79.1167 24.2134 79.3812 24.4591C79.6458 24.7237 80.0237 24.856 80.4773 24.856H80.8741C81.3277 24.856 81.6867 24.7237 81.9702 24.4591C82.2348 24.1945 82.3671 23.7599 82.3671 23.1741C82.386 22.5882 82.2537 22.1536 81.9702 21.889Z" fill="black"/>
<path d="M85.5792 21.5117H85.1824C84.7288 21.5117 84.3698 21.644 84.0863 21.9086C83.8217 22.1542 83.6895 22.5889 83.6895 23.1936C83.6895 23.7983 83.8217 24.233 84.0863 24.4787C84.3509 24.7432 84.7288 24.8755 85.1824 24.8755H85.5792C86.0328 24.8755 86.3918 24.7432 86.6753 24.4787C86.9398 24.2141 87.0721 23.7794 87.0721 23.1936C87.0721 22.5889 86.9398 22.1542 86.6753 21.9086C86.4107 21.6251 86.0328 21.5117 85.5792 21.5117Z" fill="black"/>
<path d="M103.06 19.4328C104.193 19.1494 105.271 18.7336 106.272 18.1856L106.329 18.1667L106.386 18.1856C107.387 18.7336 108.483 19.1494 109.598 19.4328C110.732 19.7163 111.923 19.8486 113.151 19.8486H117.252L119.349 16.7494V16.0501C119.349 14.6139 119.217 13.31 118.971 12.195C118.726 11.0801 118.31 10.0407 117.762 9.11471C117.214 8.18873 116.496 7.30054 115.608 6.50684C114.738 5.71314 113.661 4.91944 112.395 4.14463L106.99 0.856445L105.705 2.99188H105.649C104.874 3.08637 104.118 3.33204 103.456 3.74778C102.776 4.14463 102.19 4.67377 101.68 5.27849C101.189 5.88322 100.773 6.60133 100.471 7.39503C100.168 8.18873 100.017 9.03912 100.017 9.92731C100.017 11.1368 100.338 12.3462 100.962 13.4801C101.586 14.6328 102.512 15.6722 103.683 16.5793L103.759 16.636L103.608 16.9194H89.1888C87.0533 16.9194 85.9762 15.8423 85.9762 13.7068V8.05644H83.6328V13.7068C83.6328 15.8423 82.5557 16.9194 80.4202 16.9194H66.5494C66.1525 16.9194 65.7935 16.8438 65.4722 16.6927C65.151 16.5415 64.8486 16.2769 64.5462 15.899C64.2439 15.521 63.9604 15.0297 63.6769 14.4061C63.3935 13.8013 63.0722 12.9887 62.7132 12.0061L59.047 1.91471L56.6659 2.78401L60.1242 12.3084C60.4455 13.1588 60.6533 13.7824 60.7856 14.2171C60.9179 14.6328 60.9746 14.9919 60.9746 15.2942C60.9746 15.6344 60.899 15.899 60.7856 16.1068C60.6533 16.3147 60.4077 16.4848 60.0675 16.5982C59.7462 16.7116 59.3116 16.7872 58.7636 16.8438C58.2344 16.9005 57.573 16.9194 56.7226 16.9194H51.6958V14.1604H49.3525V16.8627C49.3525 17.8643 49.6171 18.6013 50.1651 19.0927C50.7132 19.584 51.4124 19.8486 52.2628 19.8486H56.7037C58.2155 19.8486 59.3494 19.6029 60.1053 19.1116C60.8423 18.6391 61.2958 17.8076 61.447 16.6549L61.4659 16.5604H61.8061L61.8439 16.6171C62.1273 17.2218 62.4297 17.732 62.751 18.1289C63.0533 18.5257 63.4124 18.8659 63.7903 19.1116C64.1683 19.3572 64.6029 19.5462 65.0943 19.6596C65.5856 19.773 66.1525 19.8297 66.7951 19.8297H78.4927C80.1179 19.8297 81.3273 19.5651 82.0832 19.0738C82.8391 18.5635 83.3494 17.6564 83.6139 16.3525L83.6328 16.258H83.9919L84.0108 16.3336C84.5777 18.658 86.5242 19.8297 89.8124 19.8297H99.5825C100.735 19.8486 101.945 19.7163 103.06 19.4328ZM111.677 13.499C112.301 12.3651 112.622 11.1746 112.622 9.96511C112.622 9.13361 112.471 8.32101 112.187 7.56511L112.168 7.50841L112.395 7.28164L112.471 7.33834C113.245 7.86747 113.926 8.4344 114.512 9.03912C115.079 9.64385 115.57 10.3053 115.929 11.0423C116.288 11.7793 116.571 12.5919 116.742 13.4612C116.912 14.3305 117.006 15.332 117.006 16.4281V16.9383H109.031L108.88 16.6549L108.956 16.5982C110.127 15.6911 111.053 14.6517 111.677 13.499ZM103.438 13.2344C102.719 12.195 102.36 11.099 102.36 9.96511C102.36 8.64227 102.701 7.56511 103.381 6.77141C104.061 5.97771 105.006 5.56196 106.14 5.56196H106.499C107.633 5.56196 108.578 5.95881 109.258 6.77141C109.938 7.56511 110.279 8.64227 110.279 9.96511C110.279 11.099 109.919 12.195 109.201 13.2344C108.483 14.2738 107.538 15.1431 106.367 15.8234L106.31 15.8612L106.253 15.8234C105.101 15.1431 104.156 14.2738 103.438 13.2344Z" fill="black"/>
<path d="M126.549 0.875H126.152C125.699 0.875 125.339 1.00728 125.056 1.27185C124.791 1.53642 124.659 1.95217 124.659 2.55689C124.659 3.16161 124.791 3.59626 125.056 3.84193C125.321 4.1065 125.68 4.23878 126.152 4.23878H126.549C127.002 4.23878 127.362 4.1065 127.645 3.84193C127.91 3.57736 128.042 3.16161 128.042 2.55689C128.042 1.95217 127.91 1.51752 127.645 1.27185C127.362 1.00728 127.002 0.875 126.549 0.875Z" fill="black"/>
<path d="M124.546 26.2173C125.68 25.6693 126.606 24.9323 127.267 24.0063C127.947 23.0803 128.439 22.0031 128.722 20.7937C129.006 19.5843 129.157 18.2992 129.157 16.9764C129.157 15.011 128.968 12.8756 128.571 10.6646L128.117 8L125.774 8.47244L126.511 12.4787C126.625 13.178 126.738 13.915 126.795 14.6898C126.87 15.4646 126.908 16.2016 126.908 16.9008C126.908 17.8457 126.814 18.7717 126.606 19.6409C126.417 20.5102 126.058 21.285 125.566 21.9465C125.075 22.6079 124.376 23.137 123.525 23.5339C122.675 23.9307 121.541 24.1197 120.199 24.1197H118.952V27.0299H120.199C121.976 27.0488 123.431 26.7654 124.546 26.2173Z" fill="black"/>
<path d="M7.00293 13.4238C10.5097 13.4238 13.3525 10.581 13.3525 7.07422C13.3525 3.56742 10.5097 0.724609 7.00293 0.724609C3.49614 0.724609 0.65332 3.56742 0.65332 7.07422C0.65332 10.581 3.49614 13.4238 7.00293 13.4238Z" fill="#F20C28"/>
<path d="M32.8545 39.2187C36.3613 39.2187 39.2041 36.3759 39.2041 32.8691C39.2041 29.3623 36.3613 26.5195 32.8545 26.5195C29.3477 26.5195 26.5049 29.3623 26.5049 32.8691C26.5049 36.3759 29.3477 39.2187 32.8545 39.2187Z" fill="#F20C28"/>
<path d="M5.60483 39.0678C0.729235 37.9717 -1.00935 31.9245 2.52451 28.4095L28.3954 2.59534C29.9261 1.06464 32.156 0.422116 34.2725 0.894557C39.1481 1.99062 40.8867 8.03786 37.3529 11.5528L11.482 37.367C9.93239 38.8977 7.72136 39.5402 5.60483 39.0678Z" fill="#F20C28"/>
</svg>
