<svg width="33" height="32" viewBox="0 0 33 32" fill="none" xmlns="http://www.w3.org/2000/svg">
<g clip-path="url(#clip0_404_31805)">
<path opacity="0.2" d="M16.6665 27C16.6665 27 3.6665 20 3.6665 11.75C3.6665 9.95979 4.37766 8.2429 5.64353 6.97703C6.9094 5.71116 8.62629 5 10.4165 5C13.2403 5 15.659 6.53875 16.6665 9C17.674 6.53875 20.0928 5 22.9165 5C24.7067 5 26.4236 5.71116 27.6895 6.97703C28.9553 8.2429 29.6665 9.95979 29.6665 11.75C29.6665 20 16.6665 27 16.6665 27Z" fill="#E73F3F"/>
<path d="M16.6665 27C16.6665 27 3.6665 20 3.6665 11.75C3.6665 9.95979 4.37766 8.2429 5.64353 6.97703C6.9094 5.71116 8.62629 5 10.4165 5C13.2403 5 15.659 6.53875 16.6665 9C17.674 6.53875 20.0928 5 22.9165 5C24.7067 5 26.4236 5.71116 27.6895 6.97703C28.9553 8.2429 29.6665 9.95979 29.6665 11.75C29.6665 20 16.6665 27 16.6665 27Z" stroke="#E73F3F" stroke-width="2" stroke-linecap="round" stroke-linejoin="round"/>
</g>
<defs>
<clipPath id="clip0_404_31805">
<rect width="32" height="32" fill="white" transform="translate(0.666504)"/>
</clipPath>
</defs>
</svg>
