<svg width="703" height="418" viewBox="0 0 703 418" fill="none" xmlns="http://www.w3.org/2000/svg">
<g opacity="0.35">
<path d="M-104.143 445.293C-66.3198 296.134 279.398 318.346 353.433 241.319C412.661 179.698 541.997 -50.8763 599.262 -158.461" stroke="white"/>
<path d="M-109.01 426.927C-71.187 277.768 274.531 299.979 348.566 222.953C407.794 161.332 537.13 -69.2425 594.395 -176.827" stroke="white"/>
<path d="M-113.87 408.561C-76.0464 259.402 269.672 281.613 343.707 204.587C402.935 142.966 532.271 -87.6085 589.535 -195.193" stroke="white"/>
<path d="M-118.745 390.194C-80.9214 241.035 264.797 263.246 338.832 186.22C398.06 124.598 527.396 -105.976 584.66 -213.56" stroke="white"/>
<path d="M-123.604 371.827C-85.7808 222.668 259.938 244.88 333.972 167.853C393.2 106.232 522.536 -124.342 579.801 -231.926" stroke="white"/>
<path d="M-128.471 353.46C-90.648 204.301 255.07 226.513 329.105 149.486C388.333 87.8649 517.669 -142.709 574.934 -250.293" stroke="white"/>
<path d="M-133.331 335.095C-95.5073 185.936 250.211 208.148 324.246 131.121C383.474 69.4997 512.81 -161.074 570.074 -268.659" stroke="white"/>
<path d="M-138.206 316.728C-100.382 167.569 245.336 189.78 319.371 112.754C378.599 51.1323 507.935 -179.442 565.199 -287.026" stroke="white"/>
<path d="M-143.065 298.361C-105.242 149.203 240.477 171.414 314.512 94.3874C373.74 32.7661 503.075 -197.808 560.34 -305.392" stroke="white"/>
<path d="M-147.932 279.994C-110.109 130.836 235.609 153.047 309.644 76.0204C368.872 14.3991 498.208 -216.175 555.473 -323.759" stroke="white"/>
<path d="M-152.8 261.628C-114.976 112.469 230.742 134.681 304.777 57.6542C364.005 -3.96709 493.341 -234.541 550.606 -342.125" stroke="white"/>
<path d="M-157.659 243.262C-119.835 94.1032 225.883 116.315 299.918 39.2881C359.146 -22.3332 488.482 -252.907 545.746 -360.492" stroke="white"/>
<path d="M-162.534 224.895C-124.71 75.736 221.008 97.9475 295.043 20.9209C354.271 -40.7004 483.607 -271.274 540.871 -378.859" stroke="white"/>
<path d="M-167.393 206.529C-129.57 57.3697 216.148 79.5812 290.183 2.5546C349.411 -59.0667 478.747 -289.641 536.012 -397.225" stroke="white"/>
<path d="M-172.26 188.162C-134.437 39.0033 211.281 61.2148 285.316 -15.8118C344.544 -77.4331 473.88 -308.007 531.145 -415.591" stroke="white"/>
<path d="M-177.12 169.796C-139.296 20.6371 206.422 42.8486 280.457 -34.178C339.685 -95.7993 469.021 -326.373 526.285 -433.958" stroke="white"/>
<path d="M-181.995 151.429C-144.171 2.27013 201.547 24.4816 275.582 -52.545C334.81 -114.166 464.146 -344.74 521.41 -452.325" stroke="white"/>
<path d="M-186.854 133.063C-149.031 -16.0961 196.688 6.1154 270.722 -70.9112C329.95 -132.533 459.286 -363.107 516.551 -470.691" stroke="white"/>
<path d="M-191.721 114.696C-153.898 -34.4625 191.82 -12.251 265.855 -89.2776C325.083 -150.899 454.419 -381.473 511.684 -489.057" stroke="white"/>
</g>
</svg>
