<svg width="45" height="44" viewBox="0 0 45 44" fill="none" xmlns="http://www.w3.org/2000/svg">
<path d="M9.35202 25.3134L9.43122 25.4278C9.52802 25.573 9.62922 25.7138 9.73042 25.8678L21.1968 42.3414C21.3618 42.5783 21.5816 42.7718 21.8375 42.9055C22.0933 43.0391 22.3777 43.1089 22.6664 43.1089C22.9551 43.1089 23.2395 43.0391 23.4954 42.9055C23.7513 42.7718 23.9711 42.5783 24.136 42.3414L35.576 25.881C35.686 25.727 35.7916 25.5774 35.8972 25.441L35.9676 25.3354C37.5135 22.9436 38.3859 20.1792 38.493 17.3333C38.6001 14.4875 37.938 11.6653 36.5764 9.16403C35.2148 6.66274 33.204 4.5748 30.7557 3.12003C28.3074 1.66526 25.5121 0.897461 22.6642 0.897461C19.8163 0.897461 17.0211 1.66526 14.5728 3.12003C12.1245 4.5748 10.1137 6.66274 8.75204 9.16403C7.3904 11.6653 6.7283 14.4875 6.83543 17.3333C6.94257 20.1792 7.81498 22.9436 9.36082 25.3354L9.35202 25.3134ZM22.6664 10.1466C23.9718 10.1466 25.2478 10.5337 26.3332 11.2589C27.4186 11.9842 28.2645 13.0149 28.764 14.2209C29.2636 15.4269 29.3943 16.754 29.1396 18.0342C28.8849 19.3145 28.2564 20.4905 27.3333 21.4135C26.4103 22.3366 25.2343 22.9652 23.954 23.2198C22.6737 23.4745 21.3467 23.3438 20.1407 22.8442C18.9347 22.3447 17.9039 21.4988 17.1787 20.4134C16.4535 19.328 16.0664 18.052 16.0664 16.7466C16.0664 14.9962 16.7618 13.3175 17.9995 12.0797C19.2373 10.842 20.916 10.1466 22.6664 10.1466Z" fill="#E50000"/>
</svg>
