<svg width="44" height="44" viewBox="0 0 44 44" fill="none" xmlns="http://www.w3.org/2000/svg">
<g clip-path="url(#clip0_622_66048)">
<path d="M42.6493 0.89121C42.5217 0.573336 42.2764 0.316907 41.9645 0.175268C41.6526 0.0336294 41.2981 0.017687 40.9748 0.130757C40.6515 0.243827 40.3842 0.477204 40.2285 0.782338C40.0729 1.08747 40.0408 1.44087 40.1391 1.76901C42.1829 7.64301 38.1261 12.0298 35.0329 14.3794L33.7833 12.5886C33.3631 11.988 32.4237 11.4886 31.6933 11.4798L24.6797 11.5106C23.8229 11.5365 22.9891 11.7934 22.2663 12.2542L1.59951 26.7456C1.1188 27.0839 0.791713 27.5989 0.689867 28.1778C0.58802 28.7567 0.719713 29.3524 1.05611 29.8344L10.4479 43.272C11.1519 44.273 12.2761 44.152 13.2793 43.4524L33.9461 28.9588C34.5401 28.5386 35.2265 27.6322 35.4685 26.9392L37.6641 20.0202C37.9061 19.3294 37.7587 18.2756 37.3385 17.675L36.5773 16.5838C40.7309 13.4004 45.0429 7.77501 42.6493 0.89121ZM33.0331 21.4788C32.6524 21.7453 32.2229 21.9342 31.7691 22.0346C31.3153 22.1351 30.8462 22.1452 30.3886 22.0643C29.931 21.9834 29.4937 21.8131 29.1019 21.5631C28.7101 21.3132 28.3714 20.9885 28.1051 20.6076C27.566 19.8369 27.3546 18.8837 27.5176 17.9573C27.6805 17.0309 28.2043 16.207 28.9741 15.6664C29.5776 15.2436 30.2981 15.0199 31.0349 15.0266C31.7717 15.0333 32.488 15.2701 33.0837 15.7038C32.4853 16.0646 32.0739 16.2758 31.9969 16.3088C31.7242 16.4388 31.5037 16.6576 31.3717 16.9294C31.2396 17.2011 31.2037 17.5096 31.2699 17.8044C31.3361 18.0992 31.5005 18.3627 31.7361 18.5519C31.9717 18.741 32.2646 18.8445 32.5667 18.8454C32.7559 18.8454 32.9495 18.8014 33.1321 18.7156C33.5589 18.5132 34.0165 18.2734 34.4939 17.9896C34.6037 18.6497 34.5249 19.3275 34.2664 19.9448C34.008 20.5621 33.5805 21.0938 33.0331 21.4788Z" fill="#E50000"/>
</g>
<defs>
<clipPath id="clip0_622_66048">
<rect width="44" height="44" fill="white"/>
</clipPath>
</defs>
</svg>
