<svg width="28" height="28" viewBox="0 0 28 28" fill="none" xmlns="http://www.w3.org/2000/svg">
<g clip-path="url(#clip0_384_35687)">
<path opacity="0.2" d="M3.5 22.75V6.125C3.5 5.89294 3.59219 5.67038 3.75628 5.50628C3.92038 5.34219 4.14294 5.25 4.375 5.25H23.625C23.8571 5.25 24.0796 5.34219 24.2437 5.50628C24.4078 5.67038 24.5 5.89294 24.5 6.125V22.75L21 21L17.5 22.75L14 21L10.5 22.75L7 21L3.5 22.75Z" fill="#E73F3F"/>
<path d="M3.5 22.75V6.125C3.5 5.89294 3.59219 5.67038 3.75628 5.50628C3.92038 5.34219 4.14294 5.25 4.375 5.25H23.625C23.8571 5.25 24.0796 5.34219 24.2437 5.50628C24.4078 5.67038 24.5 5.89294 24.5 6.125V22.75L21 21L17.5 22.75L14 21L10.5 22.75L7 21L3.5 22.75Z" stroke="#E73F3F" stroke-width="1.5" stroke-linecap="round" stroke-linejoin="round"/>
<path d="M16.625 10.5L11.375 15.75" stroke="#E73F3F" stroke-width="1.5" stroke-linecap="round" stroke-linejoin="round"/>
<path d="M11.375 10.5L16.625 15.75" stroke="#E73F3F" stroke-width="1.5" stroke-linecap="round" stroke-linejoin="round"/>
</g>
<defs>
<clipPath id="clip0_384_35687">
<rect width="28" height="28" fill="white"/>
</clipPath>
</defs>
</svg>
