<svg width="45" height="44" viewBox="0 0 45 44" fill="none" xmlns="http://www.w3.org/2000/svg">
<path fill-rule="evenodd" clip-rule="evenodd" d="M18.3961 3.6665C10.4432 3.6665 3.99609 10.1136 3.99609 18.0665C3.99609 26.0195 10.4432 32.4665 18.3961 32.4665C21.7238 32.4665 24.7879 31.3378 27.2262 29.4424L36.9234 39.1393C37.6263 39.8422 38.766 39.8422 39.4689 39.1393C40.1718 38.4364 40.1718 37.2967 39.4689 36.5938L29.7719 26.8966C31.6673 24.4583 32.7961 21.3942 32.7961 18.0665C32.7961 10.1136 26.3491 3.6665 18.3961 3.6665Z" fill="#E50000"/>
<path d="M28.9961 18C28.9961 24.0751 24.2951 29 18.4961 29C12.6971 29 7.99609 24.0751 7.99609 18C7.99609 11.9249 12.6971 7 18.4961 7C24.2951 7 28.9961 11.9249 28.9961 18Z" fill="#FEF2F2"/>
</svg>
