<svg width="26" height="12" viewBox="0 0 26 12" fill="none" xmlns="http://www.w3.org/2000/svg">
<path d="M2.56573 11.2287C2.16138 11.2287 1.79016 11.1293 1.4521 10.9304C1.11403 10.7282 0.845562 10.4598 0.646698 10.125C0.447834 9.78693 0.348402 9.41572 0.348402 9.01136C0.348402 8.60369 0.447834 8.23248 0.646698 7.89773C0.845562 7.55966 1.11403 7.28954 1.4521 7.08736C1.79016 6.88518 2.16138 6.78409 2.56573 6.78409H3.65948V5.02415H2.56573C2.16138 5.02415 1.79016 4.92472 1.4521 4.72585C1.11403 4.52699 0.845562 4.26018 0.646698 3.92543C0.447834 3.58736 0.348402 3.21449 0.348402 2.80682C0.348402 2.39915 0.447834 2.02794 0.646698 1.69318C0.845562 1.35843 1.11403 1.09162 1.4521 0.892755C1.79016 0.690577 2.16138 0.589488 2.56573 0.589488C2.9734 0.589488 3.34461 0.690577 3.67937 0.892755C4.01744 1.09162 4.2859 1.35843 4.48477 1.69318C4.68694 2.02794 4.78803 2.39915 4.78803 2.80682V3.89062H6.55295V2.80682C6.55295 2.39915 6.65238 2.02794 6.85124 1.69318C7.05011 1.35843 7.31692 1.09162 7.65167 0.892755C7.98974 0.690577 8.36261 0.589488 8.77028 0.589488C9.17795 0.589488 9.54916 0.690577 9.88391 0.892755C10.2187 1.09162 10.4855 1.35843 10.6843 1.69318C10.8832 2.02794 10.9826 2.39915 10.9826 2.80682C10.9826 3.21449 10.8832 3.58736 10.6843 3.92543C10.4855 4.26018 10.2187 4.52699 9.88391 4.72585C9.54916 4.92472 9.17795 5.02415 8.77028 5.02415H7.6815V6.78409H8.77028C9.17795 6.78409 9.54916 6.88518 9.88391 7.08736C10.2187 7.28954 10.4855 7.55966 10.6843 7.89773C10.8832 8.23248 10.9826 8.60369 10.9826 9.01136C10.9826 9.41572 10.8832 9.78693 10.6843 10.125C10.4855 10.4598 10.2187 10.7282 9.88391 10.9304C9.54916 11.1293 9.17795 11.2287 8.77028 11.2287C8.36261 11.2287 7.98974 11.1293 7.65167 10.9304C7.31692 10.7282 7.05011 10.4598 6.85124 10.125C6.65238 9.78693 6.55295 9.41572 6.55295 9.01136V7.91761H4.78803V9.01136C4.78803 9.41572 4.68694 9.78693 4.48477 10.125C4.2859 10.4598 4.01744 10.7282 3.67937 10.9304C3.34461 11.1293 2.9734 11.2287 2.56573 11.2287ZM2.56573 10.0952C2.76791 10.0952 2.9502 10.0471 3.11261 9.95099C3.27833 9.85488 3.4109 9.72396 3.51033 9.55824C3.60977 9.39252 3.65948 9.21023 3.65948 9.01136V7.91761H2.56573C2.36687 7.91761 2.18458 7.96733 2.01886 8.06676C1.85314 8.16288 1.72056 8.2938 1.62113 8.45952C1.52501 8.62524 1.47695 8.80919 1.47695 9.01136C1.47695 9.21023 1.52501 9.39252 1.62113 9.55824C1.72056 9.72396 1.85314 9.85488 2.01886 9.95099C2.18458 10.0471 2.36687 10.0952 2.56573 10.0952ZM2.56573 3.89062H3.65948V2.80682C3.65948 2.60464 3.60977 2.42235 3.51033 2.25994C3.4109 2.09422 3.27833 1.9633 3.11261 1.86719C2.9502 1.77107 2.76791 1.72301 2.56573 1.72301C2.36687 1.72301 2.18458 1.77107 2.01886 1.86719C1.85314 1.9633 1.72056 2.09422 1.62113 2.25994C1.52501 2.42235 1.47695 2.60464 1.47695 2.80682C1.47695 3.009 1.52501 3.19294 1.62113 3.35866C1.72056 3.52107 1.85314 3.65033 2.01886 3.74645C2.18458 3.84257 2.36687 3.89062 2.56573 3.89062ZM7.6815 3.89062H8.77028C8.97246 3.89062 9.15475 3.84257 9.31715 3.74645C9.47956 3.65033 9.60882 3.52107 9.70494 3.35866C9.80437 3.19294 9.85408 3.009 9.85408 2.80682C9.85408 2.60464 9.80437 2.42235 9.70494 2.25994C9.60882 2.09422 9.47956 1.9633 9.31715 1.86719C9.15475 1.77107 8.97246 1.72301 8.77028 1.72301C8.5681 1.72301 8.38415 1.77107 8.21843 1.86719C8.05271 1.9633 7.92179 2.09422 7.82568 2.25994C7.72956 2.42235 7.6815 2.60464 7.6815 2.80682V3.89062ZM8.77028 10.0952C8.97246 10.0952 9.15475 10.0471 9.31715 9.95099C9.47956 9.85488 9.60882 9.72396 9.70494 9.55824C9.80437 9.39252 9.85408 9.21023 9.85408 9.01136C9.85408 8.80919 9.80437 8.62524 9.70494 8.45952C9.60882 8.2938 9.47956 8.16288 9.31715 8.06676C9.15475 7.96733 8.97246 7.91761 8.77028 7.91761H7.6815V9.01136C7.6815 9.21023 7.72956 9.39252 7.82568 9.55824C7.92179 9.72396 8.05271 9.85488 8.21843 9.95099C8.38415 10.0471 8.5681 10.0952 8.77028 10.0952ZM4.78803 6.78409H6.55295V5.02415H4.78803V6.78409ZM18.176 11H16.5453L20.2093 0.818182H21.9842L25.6483 11H24.0176L21.139 2.66761H21.0595L18.176 11ZM18.4494 7.01278H23.7392V8.3054H18.4494V7.01278Z" fill="#6F7687"/>
</svg>
