<svg width="33" height="32" viewBox="0 0 33 32" fill="none" xmlns="http://www.w3.org/2000/svg">
<g clip-path="url(#clip0_404_31804)">
<path opacity="0.2" d="M17.2508 3.61252L20.1546 10.5325C20.2248 10.7005 20.3396 10.846 20.4866 10.9535C20.6335 11.061 20.807 11.1264 20.9883 11.1425L28.4208 11.785C28.618 11.8009 28.8061 11.8749 28.9612 11.9976C29.1164 12.1204 29.2316 12.2864 29.2924 12.4747C29.3531 12.663 29.3567 12.8651 29.3025 13.0554C29.2484 13.2457 29.1391 13.4156 28.9883 13.5438L23.3496 18.4625C23.2125 18.5829 23.1106 18.7382 23.0547 18.9118C22.9988 19.0855 22.991 19.271 23.0321 19.4488L24.7221 26.7663C24.7667 26.9574 24.7542 27.1574 24.6859 27.3415C24.6177 27.5255 24.4968 27.6854 24.3384 27.8012C24.1799 27.917 23.9909 27.9836 23.7948 27.9927C23.5988 28.0019 23.4043 27.9531 23.2358 27.8525L16.8483 23.9775C16.6931 23.8831 16.515 23.8332 16.3333 23.8332C16.1517 23.8332 15.9735 23.8831 15.8183 23.9775L9.43081 27.8525C9.26227 27.9531 9.06786 28.0019 8.87181 27.9927C8.67575 27.9836 8.48672 27.917 8.32826 27.8012C8.1698 27.6854 8.04892 27.5255 7.98069 27.3415C7.91246 27.1574 7.8999 26.9574 7.94456 26.7663L9.63456 19.4488C9.67564 19.271 9.66781 19.0855 9.61191 18.9118C9.55601 18.7382 9.45412 18.5829 9.31706 18.4625L3.67831 13.5438C3.52756 13.4156 3.4182 13.2457 3.36408 13.0554C3.30995 12.8651 3.31349 12.663 3.37424 12.4747C3.435 12.2864 3.55024 12.1204 3.70538 11.9976C3.86053 11.8749 4.0486 11.8009 4.24581 11.785L11.6783 11.1425C11.8596 11.1264 12.0331 11.061 12.1801 10.9535C12.327 10.846 12.4418 10.7005 12.5121 10.5325L15.4158 3.61252C15.4934 3.43361 15.6215 3.28128 15.7846 3.17427C15.9476 3.06726 16.1383 3.01025 16.3333 3.01025C16.5283 3.01025 16.7191 3.06726 16.8821 3.17427C17.0451 3.28128 17.1733 3.43361 17.2508 3.61252Z" fill="#F4A118"/>
<path d="M17.2508 3.61252L20.1546 10.5325C20.2248 10.7005 20.3396 10.846 20.4866 10.9535C20.6335 11.061 20.807 11.1264 20.9883 11.1425L28.4208 11.785C28.618 11.8009 28.8061 11.8749 28.9612 11.9976C29.1164 12.1204 29.2316 12.2864 29.2924 12.4747C29.3531 12.663 29.3567 12.8651 29.3025 13.0554C29.2484 13.2457 29.1391 13.4156 28.9883 13.5438L23.3496 18.4625C23.2125 18.5829 23.1106 18.7382 23.0547 18.9118C22.9988 19.0855 22.991 19.271 23.0321 19.4488L24.7221 26.7663C24.7667 26.9574 24.7542 27.1574 24.6859 27.3415C24.6177 27.5255 24.4968 27.6854 24.3384 27.8012C24.1799 27.917 23.9909 27.9836 23.7948 27.9927C23.5988 28.0019 23.4043 27.9531 23.2358 27.8525L16.8483 23.9775C16.6931 23.8831 16.515 23.8332 16.3333 23.8332C16.1517 23.8332 15.9735 23.8831 15.8183 23.9775L9.43081 27.8525C9.26227 27.9531 9.06786 28.0019 8.87181 27.9927C8.67575 27.9836 8.48672 27.917 8.32826 27.8012C8.1698 27.6854 8.04892 27.5255 7.98069 27.3415C7.91246 27.1574 7.8999 26.9574 7.94456 26.7663L9.63456 19.4488C9.67564 19.271 9.66781 19.0855 9.61191 18.9118C9.55601 18.7382 9.45412 18.5829 9.31706 18.4625L3.67831 13.5438C3.52756 13.4156 3.4182 13.2457 3.36408 13.0554C3.30995 12.8651 3.31349 12.663 3.37424 12.4747C3.435 12.2864 3.55024 12.1204 3.70538 11.9976C3.86053 11.8749 4.0486 11.8009 4.24581 11.785L11.6783 11.1425C11.8596 11.1264 12.0331 11.061 12.1801 10.9535C12.327 10.846 12.4418 10.7005 12.5121 10.5325L15.4158 3.61252C15.4934 3.43361 15.6215 3.28128 15.7846 3.17427C15.9476 3.06726 16.1383 3.01025 16.3333 3.01025C16.5283 3.01025 16.7191 3.06726 16.8821 3.17427C17.0451 3.28128 17.1733 3.43361 17.2508 3.61252Z" stroke="#F4A118" stroke-width="2" stroke-linecap="round" stroke-linejoin="round"/>
</g>
<defs>
<clipPath id="clip0_404_31804">
<rect width="32" height="32" fill="white" transform="translate(0.333252)"/>
</clipPath>
</defs>
</svg>
