<svg width="32" height="32" viewBox="0 0 32 32" fill="none" xmlns="http://www.w3.org/2000/svg">
<g clip-path="url(#clip0_611_35718)">
<path d="M13.4808 4.57974C14.311 2.19158 17.6884 2.19158 18.5185 4.57974L19.7792 8.20662C20.1454 9.26014 21.1286 9.97446 22.2437 9.99719L26.0827 10.0754C28.6105 10.1269 29.6541 13.3391 27.6394 14.8665L24.5796 17.1863C23.6908 17.8601 23.3153 19.0159 23.6382 20.0835L24.7501 23.7587C25.4823 26.1787 22.7499 28.1639 20.6746 26.7198L17.5228 24.5266C16.6073 23.8895 15.392 23.8895 14.4765 24.5266L11.3248 26.7198C9.24946 28.1639 6.51707 26.1787 7.24921 23.7587L8.36111 20.0835C8.68409 19.0159 8.30855 17.8601 7.41975 17.1863L4.35996 14.8665C2.34521 13.3391 3.38889 10.1269 5.91669 10.0754L9.75563 9.99719C10.8708 9.97446 11.8539 9.26014 12.2201 8.20662L13.4808 4.57974Z" fill="#F4A118"/>
</g>
<defs>
<clipPath id="clip0_611_35718">
<rect width="32" height="32" fill="white"/>
</clipPath>
</defs>
</svg>
