<svg width="94" height="106" viewBox="0 0 94 106" fill="none" xmlns="http://www.w3.org/2000/svg">
<path opacity="0.08" d="M100 0L102.492 86.9964C102.521 87.9891 103.822 88.3379 104.343 87.4924L150 13.3975L108.66 89.9848C108.189 90.8587 109.141 91.8115 110.015 91.3398L186.603 50L112.508 95.6567C111.662 96.1777 112.011 97.4792 113.004 97.5076L200 100L113.004 102.492C112.011 102.521 111.662 103.822 112.508 104.343L186.603 150L110.015 108.66C109.141 108.189 108.189 109.141 108.66 110.015L150 186.603L104.343 112.508C103.822 111.662 102.521 112.011 102.492 113.004L100 200L97.5076 113.004C97.4792 112.011 96.1777 111.662 95.6567 112.508L50 186.603L91.3398 110.015C91.8115 109.141 90.8587 108.189 89.9848 108.66L13.3975 150L87.4924 104.343C88.3379 103.822 87.9891 102.521 86.9964 102.492L0 100L86.9964 97.5076C87.9891 97.4792 88.3379 96.1777 87.4924 95.6567L13.3975 50L89.9848 91.3398C90.8587 91.8115 91.8115 90.8587 91.3398 89.9848L50 13.3975L95.6567 87.4924C96.1777 88.3379 97.4792 87.9891 97.5076 86.9964L100 0Z" fill="white"/>
</svg>
