<svg width="20" height="20" viewBox="0 0 20 20" fill="none" xmlns="http://www.w3.org/2000/svg">
<g id="system-uicons:location">
<g id="Group">
<path id="Vector" fill-rule="evenodd" clip-rule="evenodd" d="M10.0033 17.6574L10.6043 16.9803C11.2862 16.1993 11.8995 15.4584 12.4453 14.7536L12.8957 14.1593C14.7767 11.625 15.7176 9.61361 15.7176 8.12694C15.7176 4.95361 13.1595 2.38123 10.0033 2.38123C6.84716 2.38123 4.28906 4.95361 4.28906 8.12694C4.28906 9.61361 5.23001 11.625 7.11097 14.1593L7.56144 14.7536C8.33996 15.7511 9.15446 16.7191 10.0033 17.6574Z" stroke="#FF9930" stroke-width="1.5" stroke-linecap="round" stroke-linejoin="round"/>
<path id="Vector_2" d="M10.002 10.4765C11.317 10.4765 12.383 9.41052 12.383 8.09555C12.383 6.78059 11.317 5.7146 10.002 5.7146C8.68708 5.7146 7.62109 6.78059 7.62109 8.09555C7.62109 9.41052 8.68708 10.4765 10.002 10.4765Z" stroke="#FF9930" stroke-width="1.5" stroke-linecap="round" stroke-linejoin="round"/>
</g>
</g>
</svg>
