<svg width="24" height="24" viewBox="0 0 24 24" fill="none" xmlns="http://www.w3.org/2000/svg">
<path fill-rule="evenodd" clip-rule="evenodd" d="M12.0017 21.1886L12.7228 20.376C13.5411 19.4389 14.2771 18.5498 14.932 17.704L15.4725 16.9909C17.7297 13.9497 18.8588 11.536 18.8588 9.75204C18.8588 5.94403 15.7891 2.85718 12.0017 2.85718C8.21425 2.85718 5.14453 5.94403 5.14453 9.75204C5.14453 11.536 6.27367 13.9497 8.53082 16.9909L9.07139 17.704C10.0056 18.9011 10.983 20.0626 12.0017 21.1886Z" stroke="#FF9930" stroke-width="0.761905" stroke-linecap="round" stroke-linejoin="round"/>
<path d="M12.0017 12.5715C13.5796 12.5715 14.8588 11.2923 14.8588 9.71432C14.8588 8.13636 13.5796 6.85718 12.0017 6.85718C10.4237 6.85718 9.14453 8.13636 9.14453 9.71432C9.14453 11.2923 10.4237 12.5715 12.0017 12.5715Z" fill="white" stroke="#FF9930" stroke-width="0.761905" stroke-linecap="round" stroke-linejoin="round"/>
</svg>
