<svg width="33" height="32" viewBox="0 0 33 32" fill="none" xmlns="http://www.w3.org/2000/svg">
<path d="M27.9072 17.6578C28.7328 16.8321 29.1565 15.6868 29.0669 14.5226L28.5282 7.51884C28.3769 5.55172 26.8139 3.98873 24.8468 3.83741L17.843 3.29866C16.6788 3.2091 15.5335 3.63276 14.7078 4.45845L4.69501 14.4713C3.13291 16.0334 3.13291 18.566 4.69501 20.1281L12.2375 27.6706C13.7996 29.2327 16.3322 29.2327 17.8943 27.6706L27.9072 17.6578Z" fill="#FF8058"/>
<path d="M19.7801 9.7573C18.9991 10.5383 18.9991 11.8047 19.7801 12.5857C20.5612 13.3668 21.8275 13.3668 22.6085 12.5857C23.3896 11.8047 23.3896 10.5383 22.6085 9.7573C21.8275 8.97625 20.5612 8.97625 19.7801 9.7573Z" fill="#FEDACE"/>
<path fill-rule="evenodd" clip-rule="evenodd" d="M10.3524 18.2426L14.1237 22.0138C14.6444 22.5345 15.4886 22.5345 16.0093 22.0138C16.53 21.4931 16.53 20.6489 16.0093 20.1282L12.2381 16.357C11.7174 15.8363 10.8731 15.8363 10.3524 16.357C9.83174 16.8777 9.83174 17.7219 10.3524 18.2426Z" fill="#FEDACE"/>
</svg>
