<svg width="81" height="81" viewBox="0 0 81 81" fill="none" xmlns="http://www.w3.org/2000/svg">
<g clip-path="url(#clip0_617_40341)">
<path d="M72.5625 74.25H8.4375C3.78675 74.25 0 70.4632 0 65.8125V59.0625C0 58.131 0.756 57.375 1.6875 57.375H3.375C7.09763 57.375 10.125 54.3476 10.125 50.625C10.125 46.9024 7.09763 43.875 3.375 43.875H1.6875C0.756 43.875 0 43.119 0 42.1875V35.4375C0 30.7867 3.78675 27 8.4375 27H72.5625C77.2132 27 81 30.7867 81 35.4375V42.1875C81 43.119 80.244 43.875 79.3125 43.875H77.625C73.9024 43.875 70.875 46.9024 70.875 50.625C70.875 52.4272 71.577 54.1215 72.8528 55.3972C74.1251 56.673 75.8194 57.375 77.6216 57.375H79.3091C80.2406 57.375 80.9966 58.131 80.9966 59.0625V65.8125C81 70.4632 77.2132 74.25 72.5625 74.25ZM3.375 60.75V65.8125C3.375 68.6036 5.64637 70.875 8.4375 70.875H72.5625C75.3536 70.875 77.625 68.6036 77.625 65.8125V60.75C74.9216 60.75 72.3769 59.697 70.4666 57.7867C68.553 55.8731 67.5 53.3284 67.5 50.625C67.5 45.0427 72.0427 40.5 77.625 40.5V35.4375C77.625 32.6464 75.3536 30.375 72.5625 30.375H8.4375C5.64637 30.375 3.375 32.6464 3.375 35.4375V40.5C8.95725 40.5 13.5 45.0427 13.5 50.625C13.5 56.2073 8.95725 60.75 3.375 60.75Z" fill="#F4A118"/>
<path d="M28.6875 33.75C27.756 33.75 27 32.994 27 32.0625V28.6875C27 27.756 27.756 27 28.6875 27C29.619 27 30.375 27.756 30.375 28.6875V32.0625C30.375 32.994 29.619 33.75 28.6875 33.75Z" fill="#F4A118"/>
<path d="M28.6875 62.3058C27.756 62.3058 27 61.5498 27 60.6183V54.9112C27 53.9797 27.756 53.2237 28.6875 53.2237C29.619 53.2237 30.375 53.9763 30.375 54.9112V60.6217C30.375 61.5532 29.619 62.3058 28.6875 62.3058ZM28.6875 48.0296C27.756 48.0296 27 47.2736 27 46.3421V40.6316C27 39.7001 27.756 38.9441 28.6875 38.9441C29.619 38.9441 30.375 39.7001 30.375 40.6316V46.3421C30.375 47.2736 29.619 48.0296 28.6875 48.0296Z" fill="#F4A118"/>
<path d="M28.6875 74.25C27.756 74.25 27 73.494 27 72.5625V69.1875C27 68.256 27.756 67.5 28.6875 67.5C29.619 67.5 30.375 68.256 30.375 69.1875V72.5625C30.375 73.494 29.619 74.25 28.6875 74.25Z" fill="#F4A118"/>
<path d="M8.43746 30.375C7.75233 30.375 7.10771 29.9565 6.85796 29.2781C6.53058 28.404 6.97271 27.432 7.84683 27.108L61.5093 7.07059C64.1182 6.09184 67.1827 7.55659 68.0737 10.1857L74.1588 28.1441C74.4558 29.0283 73.9833 29.9835 73.1025 30.2838C72.2283 30.5842 71.2631 30.1083 70.9627 29.2275L64.8776 11.2691C64.5806 10.3916 63.5613 9.91234 62.6872 10.2296L9.02471 30.267C8.83233 30.3412 8.63321 30.375 8.43746 30.375Z" fill="#F4A118"/>
</g>
<defs>
<clipPath id="clip0_617_40341">
<rect width="81" height="81" fill="white"/>
</clipPath>
</defs>
</svg>
