<svg width="83" height="30" viewBox="0 0 83 30" fill="none" xmlns="http://www.w3.org/2000/svg">
<path id="Vector" opacity="0.15" fill-rule="evenodd" clip-rule="evenodd" d="M11.3484 1.30438C6.04773 7.55016 0.965439 15.2955 0.914476 21.0848C0.894628 23.2631 1.58772 25.1647 3.25017 26.6051C5.64272 28.6795 8.27882 29.4109 10.902 29.4152C14.7355 29.4206 18.5421 27.8689 21.5226 26.6723C26.5421 24.6582 82.0284 0.481943 82.0284 0.481943C82.5638 0.212821 82.4635 -0.122503 81.7935 0.0448906C81.5231 0.112709 21.388 16.464 21.388 16.464C20.2489 16.7872 19.0719 16.9563 17.8882 16.9667C13.2667 16.9942 9.1543 14.4203 9.18756 8.99642C9.20043 6.87413 9.84792 4.31478 11.3484 1.30438Z" fill="black"/>
</svg>
