<svg width="20" height="20" viewBox="0 0 20 20" fill="none" xmlns="http://www.w3.org/2000/svg">
<g clip-path="url(#clip0_1229_3945)">
<path d="M1.66663 11.25L5.83329 13.75V18.3333M1.66663 11.25L5.83329 8.74996L9.99996 11.25M1.66663 11.25V15.8333L5.83329 18.3333M9.99996 11.25V15.8333M9.99996 11.25L14.1666 13.75M9.99996 11.25L14.1666 8.74996M9.99996 11.25V6.66663M9.99996 15.8333L5.83329 18.3333M9.99996 15.8333L14.1666 18.3333M5.83329 13.7874L9.99996 11.2624M14.1666 13.75V18.3333M14.1666 13.75L18.3333 11.25M14.1666 8.74996L18.3333 11.25M14.1666 8.74996V4.16663M18.3333 11.25V15.8333L14.1666 18.3333M9.99996 6.66663L5.83329 4.16663L9.99996 1.66663L14.1666 4.16663M9.99996 6.66663L14.1666 4.16663M5.83329 4.19165V8.73748" stroke="#6F7687" stroke-width="1.5" stroke-linecap="round" stroke-linejoin="round"/>
</g>
<defs>
<clipPath id="clip0_1229_3945">
<rect width="20" height="20" fill="white"/>
</clipPath>
</defs>
</svg>
