<svg width="14" height="18" viewBox="0 0 14 18" fill="none" xmlns="http://www.w3.org/2000/svg">
<path d="M9.49996 10.6667V9C9.49996 8.55797 9.32436 8.13405 9.0118 7.82149C8.69924 7.50893 8.27532 7.33333 7.83329 7.33333H4.49996M4.49996 7.33333L6.16663 5.66667M4.49996 7.33333L6.16663 9M1.16663 16.5V3.16667C1.16663 2.72464 1.34222 2.30072 1.65478 1.98816C1.96734 1.67559 2.39127 1.5 2.83329 1.5H11.1666C11.6087 1.5 12.0326 1.67559 12.3451 1.98816C12.6577 2.30072 12.8333 2.72464 12.8333 3.16667V16.5L10.3333 14.8333L8.66663 16.5L6.99996 14.8333L5.33329 16.5L3.66663 14.8333L1.16663 16.5Z" stroke="#6F7687" stroke-width="1.5" stroke-linecap="round" stroke-linejoin="round"/>
</svg>
