<svg width="20" height="20" viewBox="0 0 20 20" fill="none" xmlns="http://www.w3.org/2000/svg">
<path d="M7.5 15.8334V10.8334C7.5 10.6124 7.4122 10.4004 7.25592 10.2441C7.09964 10.0878 6.88768 10 6.66667 10H3.33333C3.11232 10 2.90036 10.0878 2.74408 10.2441C2.5878 10.4004 2.5 10.6124 2.5 10.8334V15.8334C2.5 16.0544 2.5878 16.2663 2.74408 16.4226C2.90036 16.5789 3.11232 16.6667 3.33333 16.6667M7.5 15.8334C7.5 16.0544 7.4122 16.2663 7.25592 16.4226C7.09964 16.5789 6.88768 16.6667 6.66667 16.6667H3.33333M7.5 15.8334C7.5 16.0544 7.5878 16.2663 7.74408 16.4226C7.90036 16.5789 8.11232 16.6667 8.33333 16.6667H11.6667C11.8877 16.6667 12.0996 16.5789 12.2559 16.4226C12.4122 16.2663 12.5 16.0544 12.5 15.8334M7.5 15.8334V7.50004C7.5 7.27903 7.5878 7.06707 7.74408 6.91079C7.90036 6.7545 8.11232 6.66671 8.33333 6.66671H11.6667C11.8877 6.66671 12.0996 6.7545 12.2559 6.91079C12.4122 7.06707 12.5 7.27903 12.5 7.50004V15.8334M3.33333 16.6667H15M12.5 15.8334C12.5 16.0544 12.5878 16.2663 12.7441 16.4226C12.9004 16.5789 13.1123 16.6667 13.3333 16.6667H16.6667C16.8877 16.6667 17.0996 16.5789 17.2559 16.4226C17.4122 16.2663 17.5 16.0544 17.5 15.8334V4.16671C17.5 3.94569 17.4122 3.73373 17.2559 3.57745C17.0996 3.42117 16.8877 3.33337 16.6667 3.33337H13.3333C13.1123 3.33337 12.9004 3.42117 12.7441 3.57745C12.5878 3.73373 12.5 3.94569 12.5 4.16671V15.8334Z" stroke="#6F7687" stroke-width="1.5" stroke-linecap="round" stroke-linejoin="round"/>
</svg>
