<svg width="18" height="20" viewBox="0 0 18 20" fill="none" xmlns="http://www.w3.org/2000/svg">
<path d="M15.5625 5.22511C15.8489 5.38799 16.0867 5.62425 16.2515 5.90957C16.4163 6.19489 16.5021 6.51896 16.5 6.84844V12.9184C16.5 13.5926 16.1308 14.2143 15.535 14.5418L9.91 18.1001C9.63113 18.2532 9.31814 18.3335 9 18.3335C8.68186 18.3335 8.36887 18.2532 8.09 18.1001L2.465 14.5418C2.17347 14.3825 1.9301 14.1477 1.76034 13.8622C1.59058 13.5766 1.50067 13.2507 1.5 12.9184V6.84761C1.5 6.17344 1.86917 5.55261 2.465 5.22511L8.09 1.90844C8.37711 1.75014 8.69964 1.66711 9.0275 1.66711C9.35536 1.66711 9.67789 1.75014 9.965 1.90844L15.59 5.22511H15.5625Z" stroke="#6F7687" stroke-width="1.5" stroke-linecap="round" stroke-linejoin="round"/>
<path d="M6.5 10C6.5 10.6631 6.76339 11.299 7.23223 11.7678C7.70107 12.2366 8.33696 12.5 9 12.5C9.66304 12.5 10.2989 12.2366 10.7678 11.7678C11.2366 11.299 11.5 10.6631 11.5 10C11.5 9.337 11.2366 8.70111 10.7678 8.23227C10.2989 7.76343 9.66304 7.50004 9 7.50004C8.33696 7.50004 7.70107 7.76343 7.23223 8.23227C6.76339 8.70111 6.5 9.337 6.5 10Z" stroke="#6F7687" stroke-width="1.5" stroke-linecap="round" stroke-linejoin="round"/>
</svg>
